<svg width="22" height="18" viewBox="0 0 22 18" fill="none" xmlns="http://www.w3.org/2000/svg">
<path d="M20.9882 13.1238C21.0775 12.6281 21.0775 12.1219 20.9882 11.6262L21.8751 11.1023C21.9783 11.0426 22.0229 10.9195 21.9886 10.8035C21.7582 10.0441 21.3629 9.35508 20.8472 8.78555C20.7681 8.69766 20.6409 8.67656 20.5378 8.73633L19.6508 9.26016C19.2761 8.9332 18.8464 8.68008 18.3823 8.51133V7.46367C18.3823 7.34414 18.2997 7.23867 18.1863 7.21406C17.4196 7.03828 16.6393 7.04531 15.9104 7.21406C15.797 7.23867 15.7145 7.34414 15.7145 7.46367V8.51133C15.2504 8.68008 14.8206 8.9332 14.4459 9.26016L13.5589 8.73633C13.4592 8.67656 13.3286 8.69766 13.2495 8.78555C12.7338 9.35508 12.3385 10.0441 12.1082 10.8035C12.0738 10.9195 12.1219 11.0426 12.2216 11.1023L13.1086 11.6262C13.0192 12.1219 13.0192 12.6281 13.1086 13.1238L12.2216 13.6477C12.1185 13.7074 12.0738 13.8305 12.1082 13.9465C12.3385 14.7059 12.7338 15.3914 13.2495 15.9645C13.3286 16.0523 13.4558 16.0734 13.5589 16.0137L14.4459 15.4898C14.8206 15.8168 15.2504 16.0699 15.7145 16.2387V17.2863C15.7145 17.4059 15.797 17.5113 15.9104 17.5359C16.6771 17.7117 17.4575 17.7047 18.1863 17.5359C18.2997 17.5113 18.3823 17.4059 18.3823 17.2863V16.2387C18.8464 16.0699 19.2761 15.8168 19.6508 15.4898L20.5378 16.0137C20.6375 16.0734 20.7681 16.0523 20.8472 15.9645C21.3629 15.3949 21.7582 14.7059 21.9886 13.9465C22.0229 13.8305 21.9748 13.7074 21.8751 13.6477L20.9882 13.1238ZM17.0518 14.0801C16.1305 14.0801 15.3844 13.3137 15.3844 12.375C15.3844 11.4363 16.1339 10.6699 17.0518 10.6699C17.9697 10.6699 18.7192 11.4363 18.7192 12.375C18.7192 13.3137 17.9731 14.0801 17.0518 14.0801ZM7.70081 9C10.1314 9 12.1013 6.98555 12.1013 4.5C12.1013 2.01445 10.1314 0 7.70081 0C5.27024 0 3.30035 2.01445 3.30035 4.5C3.30035 6.98555 5.27024 9 7.70081 9ZM14.6178 16.9629C14.5387 16.9207 14.4597 16.8715 14.384 16.8258L14.1124 16.9875C13.9062 17.107 13.6724 17.1738 13.4386 17.1738C13.0639 17.1738 12.7029 17.0121 12.4451 16.7309C11.8159 16.0348 11.3346 15.1875 11.063 14.284C10.874 13.6617 11.1284 13.0043 11.6784 12.6773L11.95 12.5156C11.9466 12.4242 11.9466 12.3328 11.95 12.2414L11.6784 12.0797C11.1284 11.7563 10.874 11.0953 11.063 10.473C11.094 10.3711 11.1387 10.2691 11.1731 10.1672C11.0424 10.1566 10.9152 10.125 10.7811 10.125H10.207C9.44381 10.4836 8.59466 10.6875 7.70081 10.6875C6.80697 10.6875 5.96125 10.4836 5.19461 10.125H4.62049C2.06959 10.125 0 12.2414 0 14.85V16.3125C0 17.2441 0.73914 18 1.65017 18H13.7515C14.0987 18 14.4218 17.8875 14.6865 17.7012C14.6453 17.5676 14.6178 17.4305 14.6178 17.2863V16.9629Z" fill="#039700"/>
</svg>
