<svg width="25" height="19" viewBox="0 0 25 19" fill="none" xmlns="http://www.w3.org/2000/svg">
<path d="M24.375 13.0625H23.75V9.05098C23.75 8.57969 23.5508 8.12695 23.1992 7.79297L19.2969 4.08574C18.9453 3.75176 18.4688 3.5625 17.9727 3.5625H16.25V1.78125C16.25 0.797852 15.4102 0 14.375 0H4.375C3.33984 0 2.5 0.797852 2.5 1.78125V3.5625H0.3125C0.140625 3.5625 0 3.69609 0 3.85938V4.45312C0 4.61641 0.140625 4.75 0.3125 4.75H10.9375C11.1094 4.75 11.25 4.88359 11.25 5.04688V5.64062C11.25 5.80391 11.1094 5.9375 10.9375 5.9375H1.5625C1.39062 5.9375 1.25 6.07109 1.25 6.23438V6.82812C1.25 6.99141 1.39062 7.125 1.5625 7.125H9.6875C9.85938 7.125 10 7.25859 10 7.42188V8.01562C10 8.17891 9.85938 8.3125 9.6875 8.3125H0.3125C0.140625 8.3125 0 8.44609 0 8.60938V9.20312C0 9.36641 0.140625 9.5 0.3125 9.5H8.4375C8.60938 9.5 8.75 9.63359 8.75 9.79688V10.3906C8.75 10.5539 8.60938 10.6875 8.4375 10.6875H2.5V15.4375C2.5 17.4043 4.17969 19 6.25 19C8.32031 19 10 17.4043 10 15.4375H15C15 17.4043 16.6797 19 18.75 19C20.8203 19 22.5 17.4043 22.5 15.4375H24.375C24.7188 15.4375 25 15.1703 25 14.8438V13.6562C25 13.3297 24.7188 13.0625 24.375 13.0625ZM6.25 17.2188C5.21484 17.2188 4.375 16.4209 4.375 15.4375C4.375 14.4541 5.21484 13.6562 6.25 13.6562C7.28516 13.6562 8.125 14.4541 8.125 15.4375C8.125 16.4209 7.28516 17.2188 6.25 17.2188ZM18.75 17.2188C17.7148 17.2188 16.875 16.4209 16.875 15.4375C16.875 14.4541 17.7148 13.6562 18.75 13.6562C19.7852 13.6562 20.625 14.4541 20.625 15.4375C20.625 16.4209 19.7852 17.2188 18.75 17.2188ZM21.875 9.5H16.25V5.34375H17.9727L21.875 9.05098V9.5Z" fill="#AAAAAA"/>
</svg>
