<svg width="40" height="31" viewBox="0 0 40 31" fill="none" xmlns="http://www.w3.org/2000/svg">
<path d="M38.75 25.8333H5V1.29167C5 0.578021 4.44063 0 3.75 0H1.25C0.559375 0 0 0.578021 0 1.29167V28.4167C0 29.8431 1.11953 31 2.5 31H38.75C39.4406 31 40 30.422 40 29.7083V27.125C40 26.4114 39.4406 25.8333 38.75 25.8333ZM36.25 2.58333H27.0266C25.3563 2.58333 24.5195 4.67018 25.7008 5.89081L28.232 8.50643L22.5 14.4303L16.768 8.50724C15.7914 7.49813 14.2086 7.49813 13.2328 8.50724L7.86641 14.0525C7.37813 14.5571 7.37813 15.3749 7.86641 15.8794L9.63359 17.7055C10.1219 18.2101 10.9133 18.2101 11.4016 17.7055L15 13.9863L20.732 19.9094C21.7086 20.9185 23.2914 20.9185 24.2672 19.9094L31.7672 12.1594L34.2984 14.7751C35.4797 15.9957 37.4992 15.1311 37.4992 13.4051V3.875C37.5 3.16135 36.9406 2.58333 36.25 2.58333Z" fill="white"/>
</svg>
